# xmcd
#
# Track frame offsets: 
#        150
#        23195
#        52039
#        65837
#        93862
#        112462
#        129037
#        149257
#        162854
#        184218
#
# Disc length: 2730 seconds
#
# Revision: 0
# Processed by: cddbd v1.5.2PL0 Copyright (c) Steve Scherf et al.
# Submitted via: ExactAudioCopy v0.99pb5
#
DISCID=8f0aa80a
DTITLE=Linsey Alexander - If You Ain't Got It
DYEAR=2011
DGENRE=Blues
TTITLE0=If You Ain't Got It
TTITLE1=I Got A Woman
TTITLE2=Moving To The Country
TTITLE3=I Don't Want No Woman
TTITLE4=Why You Love Me Like You Did
TTITLE5=Snowing In Chicago
TTITLE6=Dial Your Number
TTITLE7=Thinking About Me
TTITLE8=I Can't Eat, I Can't Sleep
TTITLE9=Blind Snake
EXTD=
EXTT0=
EXTT1=
EXTT2=
EXTT3=
EXTT4=
EXTT5=
EXTT6=
EXTT7=
EXTT8=
EXTT9=
PLAYORDER=
